<mxfile host="65bd71144e">
    <diagram id="0uqAt4TvOpqGXGr3B0Ud" name="Page-1">
        <mxGraphModel dx="726" dy="257" grid="1" gridSize="10" guides="1" tooltips="1" connect="1" arrows="1" fold="1" page="1" pageScale="1" pageWidth="850" pageHeight="1100" math="0" shadow="0">
            <root>
                <mxCell id="0"/>
                <mxCell id="1" parent="0"/>
                <mxCell id="2" value="&lt;h1&gt;&lt;span style=&quot;&quot;&gt;serialization&lt;/span&gt;&lt;/h1&gt;&lt;h1&gt;&lt;span style=&quot;font-family: Roboto, Arial, sans-serif; font-size: 16px; font-variant-ligatures: none; font-weight: 400; letter-spacing: 0.1px;&quot;&gt;Serialization is the process of converting an object’s state to a byte stream.&amp;nbsp;&lt;/span&gt;&lt;/h1&gt;&lt;h1&gt;&lt;span style=&quot;font-family: Roboto, Arial, sans-serif; font-size: 16px; font-variant-ligatures: none; font-weight: 400; letter-spacing: 0.1px;&quot;&gt;This byte stream can then be saved to a file, sent over a network, or stored in a database. The byte stream represents the object’s state, which can later be reconstructed to create a new copy of the object.&lt;/span&gt;&lt;br style=&quot;font-family: Roboto, Arial, sans-serif; font-size: 16px; font-variant-ligatures: none; font-weight: 400; letter-spacing: 0.1px;&quot;&gt;&lt;br style=&quot;font-family: Roboto, Arial, sans-serif; font-size: 16px; font-variant-ligatures: none; font-weight: 400; letter-spacing: 0.1px;&quot;&gt;&lt;span style=&quot;font-family: Roboto, Arial, sans-serif; font-size: 16px; font-variant-ligatures: none; font-weight: 400; letter-spacing: 0.1px;&quot;&gt; to be able to write it in file in the disk &lt;/span&gt;&lt;br style=&quot;font-family: Roboto, Arial, sans-serif; font-size: 16px; font-variant-ligatures: none; font-weight: 400; letter-spacing: 0.1px;&quot;&gt;&lt;br style=&quot;font-family: Roboto, Arial, sans-serif; font-size: 16px; font-variant-ligatures: none; font-weight: 400; letter-spacing: 0.1px;&quot;&gt;&lt;span style=&quot;font-family: Roboto, Arial, sans-serif; font-size: 16px; font-variant-ligatures: none; font-weight: 400; letter-spacing: 0.1px;&quot;&gt;Using TCP/IP or UDP to Communicate with Serialized Objects&lt;/span&gt;&lt;br&gt;&lt;/h1&gt;" style="text;html=1;strokeColor=none;fillColor=none;spacing=5;spacingTop=-20;whiteSpace=wrap;overflow=hidden;rounded=0;labelBackgroundColor=none;fontColor=#FFFFFF;" vertex="1" parent="1">
                    <mxGeometry x="50" y="210" width="590" height="350" as="geometry"/>
                </mxCell>
                <mxCell id="4" value="&lt;h1&gt;&lt;span style=&quot;&quot;&gt;resources&lt;/span&gt;&lt;/h1&gt;&lt;h1&gt;[what is serializatio](&lt;a style=&quot;pointer-events: none; font-family: Roboto, Arial, sans-serif; font-size: 16px; font-variant-ligatures: none; font-weight: 400; letter-spacing: 0.1px;&quot; href=&quot;https://www.baeldung.com/cs/serialization-deserialization&quot; target=&quot;_blank&quot; rel=&quot;nofollow&quot;&gt;https://www.baeldung.com/cs/serialization-deserialization&lt;/a&gt;)&lt;/h1&gt;&lt;div&gt;[json-serialization](https://stackoverflow.com/questions/17549906/c-json-serialization)&lt;/div&gt;&lt;div&gt;[bin-serialization](https://www.geeksforgeeks.org/serialize-and-deserialize-an-object-in-cpp/)&lt;/div&gt;&lt;div&gt;&lt;br&gt;&lt;/div&gt;" style="text;html=1;strokeColor=none;fillColor=none;spacing=5;spacingTop=-20;whiteSpace=wrap;overflow=hidden;rounded=0;labelBackgroundColor=none;fontColor=#FFFFFF;" vertex="1" parent="1">
                    <mxGeometry x="40" y="20" width="670" height="150" as="geometry"/>
                </mxCell>
                <mxCell id="5" style="edgeStyle=none;html=1;labelBackgroundColor=none;fontColor=#FFFFFF;" edge="1" parent="1" source="2" target="2">
                    <mxGeometry relative="1" as="geometry"/>
                </mxCell>
                <mxCell id="6" value="" style="shape=image;verticalLabelPosition=bottom;labelBackgroundColor=none;verticalAlign=top;aspect=fixed;imageAspect=0;image=https://www.baeldung.com/wp-content/uploads/sites/4/2023/02/Serialization-Image-2.jpg;fontColor=#FFFFFF;" vertex="1" parent="1">
                    <mxGeometry x="50" y="570" width="561.6" height="270" as="geometry"/>
                </mxCell>
                <mxCell id="7" value="&lt;span style=&quot;font-family: Raleway, sans-serif; font-size: 18px; font-style: normal; font-variant-ligatures: normal; font-variant-caps: normal; font-weight: 400; letter-spacing: normal; orphans: 2; text-align: start; text-indent: 0px; text-transform: none; widows: 2; word-spacing: 0px; -webkit-text-stroke-width: 0px; text-decoration-thickness: initial; text-decoration-style: initial; text-decoration-color: initial; float: none; display: inline !important;&quot;&gt;To serialize an object, the programmer must first decide on a format and then use the appropriate tools to convert the object to that format.&lt;/span&gt;" style="text;whiteSpace=wrap;html=1;labelBackgroundColor=none;fontColor=#FFFFFF;" vertex="1" parent="1">
                    <mxGeometry x="70" y="910" width="770" height="70" as="geometry"/>
                </mxCell>
                <mxCell id="8" value="&lt;h3 style=&quot;box-sizing: border-box; position: relative; font-family: Raleway, sans-serif; font-weight: 700; line-height: 1.1; margin-top: 2.1em; margin-bottom: 1.3em; font-size: 24px; font-style: normal; font-variant-ligatures: normal; font-variant-caps: normal; letter-spacing: normal; orphans: 2; text-align: start; text-indent: 0px; text-transform: none; widows: 2; word-spacing: 0px; -webkit-text-stroke-width: 0px; text-decoration-thickness: initial; text-decoration-style: initial; text-decoration-color: initial;&quot; data-id=&quot;1-serialization-formats&quot; id=&quot;bd-1-serialization-formats&quot;&gt;&lt;font&gt;Serialization Formats&lt;/font&gt;&lt;/h3&gt;" style="text;whiteSpace=wrap;html=1;labelBackgroundColor=none;fontColor=#FFFFFF;" vertex="1" parent="1">
                    <mxGeometry x="60" y="1130" width="280" height="100" as="geometry"/>
                </mxCell>
                <mxCell id="9" value="&lt;p style=&quot;box-sizing: border-box; margin: 0px 0px 10px; line-height: 1.334; font-family: Raleway, sans-serif; font-size: 18px; font-style: normal; font-variant-ligatures: normal; font-variant-caps: normal; font-weight: 400; letter-spacing: normal; orphans: 2; text-align: start; text-indent: 0px; text-transform: none; widows: 2; word-spacing: 0px; -webkit-text-stroke-width: 0px; text-decoration-thickness: initial; text-decoration-style: initial; text-decoration-color: initial;&quot;&gt;&lt;strong style=&quot;box-sizing: border-box; font-weight: 700;&quot;&gt;&lt;font style=&quot;&quot;&gt;Many different formats can be used for serialization, such as&lt;/font&gt;&lt;/strong&gt;&lt;/p&gt;&lt;p style=&quot;box-sizing: border-box; margin: 0px 0px 10px; line-height: 1.334; font-family: Raleway, sans-serif; font-size: 18px; font-style: normal; font-variant-ligatures: normal; font-variant-caps: normal; font-weight: 400; letter-spacing: normal; orphans: 2; text-align: start; text-indent: 0px; text-transform: none; widows: 2; word-spacing: 0px; -webkit-text-stroke-width: 0px; text-decoration-thickness: initial; text-decoration-style: initial; text-decoration-color: initial;&quot;&gt;&lt;font&gt;&lt;strong style=&quot;box-sizing: border-box; font-weight: 700;&quot;&gt;&lt;span&gt;&amp;nbsp;&lt;/span&gt;&lt;a style=&quot;box-sizing: border-box; text-decoration: none;&quot; href=&quot;https://www.baeldung.com/jackson-convert-xml-json&quot;&gt;JSON, XML&lt;/a&gt;, and binary&lt;/strong&gt;.&amp;nbsp;&lt;/font&gt;&lt;/p&gt;&lt;p style=&quot;box-sizing: border-box; margin: 0px 0px 10px; line-height: 1.334; font-family: Raleway, sans-serif; font-size: 18px; font-style: normal; font-variant-ligatures: normal; font-variant-caps: normal; font-weight: 400; letter-spacing: normal; orphans: 2; text-align: start; text-indent: 0px; text-transform: none; widows: 2; word-spacing: 0px; -webkit-text-stroke-width: 0px; text-decoration-thickness: initial; text-decoration-style: initial; text-decoration-color: initial;&quot;&gt;&lt;font&gt;&lt;br&gt;&lt;/font&gt;&lt;/p&gt;&lt;p style=&quot;box-sizing: border-box; margin: 0px 0px 10px; line-height: 1.334; font-family: Raleway, sans-serif; font-size: 18px; font-style: normal; font-variant-ligatures: normal; font-variant-caps: normal; font-weight: 400; letter-spacing: normal; orphans: 2; text-align: start; text-indent: 0px; text-transform: none; widows: 2; word-spacing: 0px; -webkit-text-stroke-width: 0px; text-decoration-thickness: initial; text-decoration-style: initial; text-decoration-color: initial;&quot;&gt;&lt;font style=&quot;&quot;&gt;JSON and XML are popular formats for serialization because they are human-readable and can be easily parsed by other systems. Binary formats are often used for performance reasons, as they’re typically faster to read and write than text-based formats.&lt;/font&gt;&lt;/p&gt;" style="text;whiteSpace=wrap;html=1;labelBackgroundColor=none;fontColor=#FFFFFF;" vertex="1" parent="1">
                    <mxGeometry x="60" y="1240" width="740" height="190" as="geometry"/>
                </mxCell>
                <mxCell id="11" value="" style="shape=image;verticalLabelPosition=bottom;labelBackgroundColor=none;verticalAlign=top;aspect=fixed;imageAspect=0;image=https://www.baeldung.com/wp-content/uploads/sites/4/2023/02/Serialization-Deserialization-Diagram.jpg;fontColor=#FFFFFF;" vertex="1" parent="1">
                    <mxGeometry x="50" y="1900" width="580" height="190.73" as="geometry"/>
                </mxCell>
                <mxCell id="13" value="&lt;h2 style=&quot;box-sizing: border-box; position: relative; font-family: Raleway, sans-serif; font-weight: 700; line-height: 1.1; margin-top: 2.1em; margin-bottom: 1.3em; font-size: 29px; font-style: normal; font-variant-ligatures: normal; font-variant-caps: normal; letter-spacing: normal; orphans: 2; text-align: start; text-indent: 0px; text-transform: none; widows: 2; word-spacing: 0px; -webkit-text-stroke-width: 0px; text-decoration-thickness: initial; text-decoration-style: initial; text-decoration-color: initial;&quot; data-id=&quot;deserialization&quot; id=&quot;bd-deserialization&quot;&gt;Deserialization&lt;/h2&gt;" style="text;whiteSpace=wrap;html=1;fontColor=#FFFFFF;labelBackgroundColor=none;" vertex="1" parent="1">
                    <mxGeometry x="70" y="1560" width="240" height="150" as="geometry"/>
                </mxCell>
                <mxCell id="14" value="&lt;p style=&quot;box-sizing: border-box; margin: 0px 0px 10px; line-height: 1.334; font-family: Raleway, sans-serif; font-size: 18px; font-style: normal; font-variant-ligatures: normal; font-variant-caps: normal; font-weight: 400; letter-spacing: normal; orphans: 2; text-align: start; text-indent: 0px; text-transform: none; widows: 2; word-spacing: 0px; -webkit-text-stroke-width: 0px; text-decoration-thickness: initial; text-decoration-style: initial; text-decoration-color: initial;&quot;&gt;Deserialization is the reverse process of serialization. It involves taking a byte stream and converting it back into an object. This is done using the appropriate tools to parse the byte stream and create a new object. In Java, the&lt;span&gt;&amp;nbsp;&lt;/span&gt;&lt;em style=&quot;box-sizing: border-box;&quot;&gt;ObjectInputStream&lt;/em&gt;&lt;span&gt;&amp;nbsp;&lt;/span&gt;class can be used to deserialize a binary format, and the&lt;span&gt;&amp;nbsp;&lt;/span&gt;&lt;a style=&quot;box-sizing: border-box; text-decoration: none;&quot; href=&quot;https://www.baeldung.com/jackson&quot;&gt;Jackson library&lt;/a&gt;&lt;span&gt;&amp;nbsp;&lt;/span&gt;can be used to parse a JSON format.&lt;/p&gt;&lt;p style=&quot;box-sizing: border-box; margin: 0px 0px 10px; line-height: 1.334; font-family: Raleway, sans-serif; font-size: 18px; font-style: normal; font-variant-ligatures: normal; font-variant-caps: normal; font-weight: 400; letter-spacing: normal; orphans: 2; text-align: start; text-indent: 0px; text-transform: none; widows: 2; word-spacing: 0px; -webkit-text-stroke-width: 0px; text-decoration-thickness: initial; text-decoration-style: initial; text-decoration-color: initial;&quot;&gt;Here’s a view of how deserialization looks like:&lt;/p&gt;" style="text;whiteSpace=wrap;html=1;fontColor=#FFFFFF;labelBackgroundColor=none;" vertex="1" parent="1">
                    <mxGeometry x="90" y="1690" width="700" height="210" as="geometry"/>
                </mxCell>
                <mxCell id="15" value="&lt;span style=&quot;font-family: Raleway, sans-serif; font-size: 18px; font-style: normal; font-variant-ligatures: normal; font-variant-caps: normal; font-weight: 400; letter-spacing: normal; orphans: 2; text-align: start; text-indent: 0px; text-transform: none; widows: 2; word-spacing: 0px; -webkit-text-stroke-width: 0px; text-decoration-thickness: initial; text-decoration-style: initial; text-decoration-color: initial; float: none; display: inline !important;&quot;&gt;Serialization and deserialization are important in programming because they allow objects to be easily stored and transmitted between different systems. This is especially useful in&amp;nbsp;&lt;/span&gt;&lt;a style=&quot;box-sizing: border-box; text-decoration: none; font-family: Raleway, sans-serif; font-size: 18px; font-style: normal; font-variant-ligatures: normal; font-variant-caps: normal; font-weight: 400; letter-spacing: normal; orphans: 2; text-align: start; text-indent: 0px; text-transform: none; widows: 2; word-spacing: 0px; -webkit-text-stroke-width: 0px;&quot; href=&quot;https://www.baeldung.com/cs/distributed-systems-guide&quot;&gt;distributed systems&lt;/a&gt;&lt;span style=&quot;font-family: Raleway, sans-serif; font-size: 18px; font-style: normal; font-variant-ligatures: normal; font-variant-caps: normal; font-weight: 400; letter-spacing: normal; orphans: 2; text-align: start; text-indent: 0px; text-transform: none; widows: 2; word-spacing: 0px; -webkit-text-stroke-width: 0px; text-decoration-thickness: initial; text-decoration-style: initial; text-decoration-color: initial; float: none; display: inline !important;&quot;&gt;&lt;span&gt;&amp;nbsp;&lt;/span&gt;where objects must be transmitted between different machines or in web applications where objects must be sent between a&lt;span&gt;&amp;nbsp;&lt;/span&gt;&lt;/span&gt;&lt;a style=&quot;box-sizing: border-box; text-decoration: none; font-family: Raleway, sans-serif; font-size: 18px; font-style: normal; font-variant-ligatures: normal; font-variant-caps: normal; font-weight: 400; letter-spacing: normal; orphans: 2; text-align: start; text-indent: 0px; text-transform: none; widows: 2; word-spacing: 0px; -webkit-text-stroke-width: 0px;&quot; href=&quot;https://www.baeldung.com/cs/application-server-vs-web-server&quot;&gt;web server&lt;/a&gt;&lt;span style=&quot;font-family: Raleway, sans-serif; font-size: 18px; font-style: normal; font-variant-ligatures: normal; font-variant-caps: normal; font-weight: 400; letter-spacing: normal; orphans: 2; text-align: start; text-indent: 0px; text-transform: none; widows: 2; word-spacing: 0px; -webkit-text-stroke-width: 0px; text-decoration-thickness: initial; text-decoration-style: initial; text-decoration-color: initial; float: none; display: inline !important;&quot;&gt;&lt;span&gt;&amp;nbsp;&lt;/span&gt;and a web browser.&lt;/span&gt;&lt;br style=&quot;box-sizing: border-box; font-family: Raleway, sans-serif; font-size: 18px; font-style: normal; font-variant-ligatures: normal; font-variant-caps: normal; font-weight: 400; letter-spacing: normal; orphans: 2; text-align: start; text-indent: 0px; text-transform: none; widows: 2; word-spacing: 0px; -webkit-text-stroke-width: 0px; text-decoration-thickness: initial; text-decoration-style: initial; text-decoration-color: initial;&quot;&gt;&lt;br style=&quot;box-sizing: border-box; font-family: Raleway, sans-serif; font-size: 18px; font-style: normal; font-variant-ligatures: normal; font-variant-caps: normal; font-weight: 400; letter-spacing: normal; orphans: 2; text-align: start; text-indent: 0px; text-transform: none; widows: 2; word-spacing: 0px; -webkit-text-stroke-width: 0px; text-decoration-thickness: initial; text-decoration-style: initial; text-decoration-color: initial;&quot;&gt;&lt;span style=&quot;font-family: Raleway, sans-serif; font-size: 18px; font-style: normal; font-variant-ligatures: normal; font-variant-caps: normal; font-weight: 400; letter-spacing: normal; orphans: 2; text-align: start; text-indent: 0px; text-transform: none; widows: 2; word-spacing: 0px; -webkit-text-stroke-width: 0px; text-decoration-thickness: initial; text-decoration-style: initial; text-decoration-color: initial; float: none; display: inline !important;&quot;&gt;For example, a web application allows users to create and save documents. When a user saves a document, the application needs to store the document’s state in a database.&lt;/span&gt;&lt;br style=&quot;box-sizing: border-box; font-family: Raleway, sans-serif; font-size: 18px; font-style: normal; font-variant-ligatures: normal; font-variant-caps: normal; font-weight: 400; letter-spacing: normal; orphans: 2; text-align: start; text-indent: 0px; text-transform: none; widows: 2; word-spacing: 0px; -webkit-text-stroke-width: 0px; text-decoration-thickness: initial; text-decoration-style: initial; text-decoration-color: initial;&quot;&gt;&lt;br style=&quot;box-sizing: border-box; font-family: Raleway, sans-serif; font-size: 18px; font-style: normal; font-variant-ligatures: normal; font-variant-caps: normal; font-weight: 400; letter-spacing: normal; orphans: 2; text-align: start; text-indent: 0px; text-transform: none; widows: 2; word-spacing: 0px; -webkit-text-stroke-width: 0px; text-decoration-thickness: initial; text-decoration-style: initial; text-decoration-color: initial;&quot;&gt;&lt;span style=&quot;font-family: Raleway, sans-serif; font-size: 18px; font-style: normal; font-variant-ligatures: normal; font-variant-caps: normal; font-weight: 400; letter-spacing: normal; orphans: 2; text-align: start; text-indent: 0px; text-transform: none; widows: 2; word-spacing: 0px; -webkit-text-stroke-width: 0px; text-decoration-thickness: initial; text-decoration-style: initial; text-decoration-color: initial; float: none; display: inline !important;&quot;&gt;To do this, the application must first serialize the document object to a byte stream and then store the byte stream in the database. Later, when the user wants to open the document, the application must retrieve the byte stream from the database. It first deserializes the byte stream back into a document object and then displays the document to the user.&lt;/span&gt;" style="text;whiteSpace=wrap;html=1;fontColor=#FFFFFF;labelBackgroundColor=none;" vertex="1" parent="1">
                    <mxGeometry x="110" y="2320" width="640" height="350" as="geometry"/>
                </mxCell>
                <mxCell id="16" value="&lt;h2 style=&quot;box-sizing: border-box; position: relative; font-family: Raleway, sans-serif; font-weight: 700; line-height: 1.1; margin-top: 2.1em; margin-bottom: 1.3em; font-size: 29px; font-style: normal; font-variant-ligatures: normal; font-variant-caps: normal; letter-spacing: normal; orphans: 2; text-align: start; text-indent: 0px; text-transform: none; widows: 2; word-spacing: 0px; -webkit-text-stroke-width: 0px; text-decoration-thickness: initial; text-decoration-style: initial; text-decoration-color: initial;&quot; data-id=&quot;storage-and-transmission&quot; id=&quot;bd-storage-and-transmission&quot;&gt;Storage and Transmission&lt;/h2&gt;" style="text;whiteSpace=wrap;html=1;fontColor=#FFFFFF;labelBackgroundColor=none;" vertex="1" parent="1">
                    <mxGeometry x="60" y="2190" width="400" height="90" as="geometry"/>
                </mxCell>
                <mxCell id="17" value="&lt;h2 style=&quot;box-sizing: border-box; position: relative; font-family: Raleway, sans-serif; font-weight: 700; line-height: 1.1; margin-top: 2.1em; margin-bottom: 1.3em; font-size: 29px; font-style: normal; font-variant-ligatures: normal; font-variant-caps: normal; letter-spacing: normal; orphans: 2; text-align: start; text-indent: 0px; text-transform: none; widows: 2; word-spacing: 0px; -webkit-text-stroke-width: 0px; text-decoration-thickness: initial; text-decoration-style: initial; text-decoration-color: initial;&quot; data-id=&quot;considerationsdrawbacks&quot; id=&quot;bd-considerationsdrawbacks&quot;&gt;Considerations/Drawbacks&lt;/h2&gt;" style="text;whiteSpace=wrap;html=1;fontColor=#FFFFFF;labelBackgroundColor=none;" vertex="1" parent="1">
                    <mxGeometry x="60" y="2770" width="410" height="150" as="geometry"/>
                </mxCell>
                <mxCell id="18" value="&lt;h3 style=&quot;box-sizing: border-box; position: relative; font-family: Raleway, sans-serif; font-weight: 700; line-height: 1.1; margin-top: 2.1em; margin-bottom: 1.3em; font-size: 24px; font-style: normal; font-variant-ligatures: normal; font-variant-caps: normal; letter-spacing: normal; orphans: 2; text-align: start; text-indent: 0px; text-transform: none; widows: 2; word-spacing: 0px; -webkit-text-stroke-width: 0px; text-decoration-thickness: initial; text-decoration-style: initial; text-decoration-color: initial;&quot; data-id=&quot;1-performance&quot; id=&quot;bd-1-performance&quot;&gt;Performance&lt;/h3&gt;" style="text;whiteSpace=wrap;html=1;fontColor=#FFFFFF;labelBackgroundColor=none;" vertex="1" parent="1">
                    <mxGeometry x="120" y="2860" width="180" height="130" as="geometry"/>
                </mxCell>
                <mxCell id="19" value="&lt;span style=&quot;font-family: Raleway, sans-serif; font-size: 18px; font-style: normal; font-variant-ligatures: normal; font-variant-caps: normal; font-weight: 400; letter-spacing: normal; orphans: 2; text-align: start; text-indent: 0px; text-transform: none; widows: 2; word-spacing: 0px; -webkit-text-stroke-width: 0px; text-decoration-thickness: initial; text-decoration-style: initial; text-decoration-color: initial; float: none; display: inline !important;&quot;&gt;Serialization and deserialization can be computationally expensive, especially for large or complex objects. Converting objects to bytes and back can take a significant amount of time and resources, which can impact the system’s performance.&lt;/span&gt;" style="text;whiteSpace=wrap;html=1;fontColor=#FFFFFF;labelBackgroundColor=none;" vertex="1" parent="1">
                    <mxGeometry x="150" y="2960" width="560" height="110" as="geometry"/>
                </mxCell>
                <mxCell id="20" value="&lt;h3 style=&quot;box-sizing: border-box; position: relative; font-family: Raleway, sans-serif; font-weight: 700; line-height: 1.1; margin-top: 2.1em; margin-bottom: 1.3em; font-size: 24px; font-style: normal; font-variant-ligatures: normal; font-variant-caps: normal; letter-spacing: normal; orphans: 2; text-align: start; text-indent: 0px; text-transform: none; widows: 2; word-spacing: 0px; -webkit-text-stroke-width: 0px; text-decoration-thickness: initial; text-decoration-style: initial; text-decoration-color: initial;&quot; data-id=&quot;2-platform-and-language-dependencies&quot; id=&quot;bd-2-platform-and-language-dependencies&quot;&gt;Platform and Language Dependencies&lt;/h3&gt;" style="text;whiteSpace=wrap;html=1;fontColor=#FFFFFF;labelBackgroundColor=none;" vertex="1" parent="1">
                    <mxGeometry x="110" y="3030" width="470" height="130" as="geometry"/>
                </mxCell>
                <mxCell id="21" value="&lt;h3 style=&quot;box-sizing: border-box; position: relative; font-family: Raleway, sans-serif; font-weight: 700; line-height: 1.1; margin-top: 2.1em; margin-bottom: 1.3em; font-size: 24px; font-style: normal; font-variant-ligatures: normal; font-variant-caps: normal; letter-spacing: normal; orphans: 2; text-align: start; text-indent: 0px; text-transform: none; widows: 2; word-spacing: 0px; -webkit-text-stroke-width: 0px; text-decoration-thickness: initial; text-decoration-style: initial; text-decoration-color: initial;&quot; data-id=&quot;3-versioning&quot; id=&quot;bd-3-versioning&quot;&gt;Versioning&lt;/h3&gt;" style="text;whiteSpace=wrap;html=1;fontColor=#FFFFFF;labelBackgroundColor=none;" vertex="1" parent="1">
                    <mxGeometry x="110" y="3280" width="160" height="130" as="geometry"/>
                </mxCell>
                <mxCell id="22" value="&lt;span style=&quot;font-family: Raleway, sans-serif; font-size: 18px; font-style: normal; font-variant-ligatures: normal; font-variant-caps: normal; font-weight: 400; letter-spacing: normal; orphans: 2; text-align: start; text-indent: 0px; text-transform: none; widows: 2; word-spacing: 0px; -webkit-text-stroke-width: 0px; text-decoration-thickness: initial; text-decoration-style: initial; text-decoration-color: initial; float: none; display: inline !important;&quot;&gt;Serialization and deserialization can be platform and language-dependent. Different programming languages and platforms may have their own implementations of serialization and deserialization, which can lead to compatibility issues when transmitting data between different systems.&lt;/span&gt;" style="text;whiteSpace=wrap;html=1;fontColor=#FFFFFF;labelBackgroundColor=none;" vertex="1" parent="1">
                    <mxGeometry x="150" y="3130" width="560" height="130" as="geometry"/>
                </mxCell>
                <mxCell id="23" value="&lt;span style=&quot;font-family: Raleway, sans-serif; font-size: 18px; font-style: normal; font-variant-ligatures: normal; font-variant-caps: normal; font-weight: 400; letter-spacing: normal; orphans: 2; text-align: start; text-indent: 0px; text-transform: none; widows: 2; word-spacing: 0px; -webkit-text-stroke-width: 0px; text-decoration-thickness: initial; text-decoration-style: initial; text-decoration-color: initial; float: none; display: inline !important;&quot;&gt;f the format of the serialized data changes over time, it can lead to versioning issues. For example, suppose a new version of an application is released with a different data format. In that case, older versions may not be able to deserialize the data correctly, leading to errors or data loss.&lt;/span&gt;" style="text;whiteSpace=wrap;html=1;fontColor=#FFFFFF;labelBackgroundColor=none;" vertex="1" parent="1">
                    <mxGeometry x="140" y="3380" width="560" height="130" as="geometry"/>
                </mxCell>
                <mxCell id="24" value="&lt;h3 style=&quot;box-sizing: border-box; position: relative; font-family: Raleway, sans-serif; font-weight: 700; line-height: 1.1; margin-top: 2.1em; margin-bottom: 1.3em; font-size: 24px; font-style: normal; font-variant-ligatures: normal; font-variant-caps: normal; letter-spacing: normal; orphans: 2; text-align: start; text-indent: 0px; text-transform: none; widows: 2; word-spacing: 0px; -webkit-text-stroke-width: 0px; text-decoration-thickness: initial; text-decoration-style: initial; text-decoration-color: initial;&quot; data-id=&quot;4-unserializable-objects&quot; id=&quot;bd-4-unserializable-objects&quot;&gt;Unserializable Objects&lt;/h3&gt;" style="text;whiteSpace=wrap;html=1;fontColor=#FFFFFF;labelBackgroundColor=none;" vertex="1" parent="1">
                    <mxGeometry x="100" y="3460" width="290" height="130" as="geometry"/>
                </mxCell>
                <mxCell id="25" value="&lt;span style=&quot;font-family: Raleway, sans-serif; font-size: 18px; font-style: normal; font-variant-ligatures: normal; font-variant-caps: normal; font-weight: 400; letter-spacing: normal; orphans: 2; text-align: start; text-indent: 0px; text-transform: none; widows: 2; word-spacing: 0px; -webkit-text-stroke-width: 0px; text-decoration-thickness: initial; text-decoration-style: initial; text-decoration-color: initial; float: none; display: inline !important;&quot;&gt;It’s also worth noting that not all objects can be serialized. Some objects may contain resources that cannot be serialized, like file handles or&lt;span&gt;&amp;nbsp;&lt;/span&gt;&lt;/span&gt;&lt;a style=&quot;box-sizing: border-box; text-decoration: none; font-family: Raleway, sans-serif; font-size: 18px; font-style: normal; font-variant-ligatures: normal; font-variant-caps: normal; font-weight: 400; letter-spacing: normal; orphans: 2; text-align: start; text-indent: 0px; text-transform: none; widows: 2; word-spacing: 0px; -webkit-text-stroke-width: 0px;&quot; href=&quot;https://www.baeldung.com/websockets-spring&quot;&gt;network sockets&lt;/a&gt;&lt;span style=&quot;font-family: Raleway, sans-serif; font-size: 18px; font-style: normal; font-variant-ligatures: normal; font-variant-caps: normal; font-weight: 400; letter-spacing: normal; orphans: 2; text-align: start; text-indent: 0px; text-transform: none; widows: 2; word-spacing: 0px; -webkit-text-stroke-width: 0px; text-decoration-thickness: initial; text-decoration-style: initial; text-decoration-color: initial; float: none; display: inline !important;&quot;&gt;.&lt;/span&gt;" style="text;whiteSpace=wrap;html=1;fontColor=#FFFFFF;labelBackgroundColor=none;" vertex="1" parent="1">
                    <mxGeometry x="140" y="3560" width="560" height="90" as="geometry"/>
                </mxCell>
                <mxCell id="26" value="&lt;h3 style=&quot;box-sizing: border-box; position: relative; font-family: Raleway, sans-serif; font-weight: 700; line-height: 1.1; margin-top: 2.1em; margin-bottom: 1.3em; font-size: 24px; font-style: normal; font-variant-ligatures: normal; font-variant-caps: normal; letter-spacing: normal; orphans: 2; text-align: start; text-indent: 0px; text-transform: none; widows: 2; word-spacing: 0px; -webkit-text-stroke-width: 0px; text-decoration-thickness: initial; text-decoration-style: initial; text-decoration-color: initial;&quot; data-id=&quot;5-security&quot; id=&quot;bd-5-security&quot;&gt;Security&lt;/h3&gt;" style="text;whiteSpace=wrap;html=1;fontColor=#FFFFFF;labelBackgroundColor=none;" vertex="1" parent="1">
                    <mxGeometry x="90" y="3610" width="130" height="130" as="geometry"/>
                </mxCell>
                <mxCell id="27" value="&lt;span style=&quot;font-family: Raleway, sans-serif; font-size: 18px; font-style: normal; font-variant-ligatures: normal; font-variant-caps: normal; font-weight: 400; letter-spacing: normal; orphans: 2; text-align: start; text-indent: 0px; text-transform: none; widows: 2; word-spacing: 0px; -webkit-text-stroke-width: 0px; text-decoration-thickness: initial; text-decoration-style: initial; text-decoration-color: initial; float: none; display: inline !important;&quot;&gt;It’s important to be aware of the security risks associated with serialization and deserialization, as maliciously crafted byte streams can be used to exploit&lt;span&gt;&amp;nbsp;&lt;/span&gt;&lt;/span&gt;&lt;a style=&quot;box-sizing: border-box; text-decoration: none; font-family: Raleway, sans-serif; font-size: 18px; font-style: normal; font-variant-ligatures: normal; font-variant-caps: normal; font-weight: 400; letter-spacing: normal; orphans: 2; text-align: start; text-indent: 0px; text-transform: none; widows: 2; word-spacing: 0px; -webkit-text-stroke-width: 0px;&quot; href=&quot;https://www.baeldung.com/cs/threat-vs-vulnerability-vs-risk&quot;&gt;vulnerabilities in a program&lt;/a&gt;&lt;span style=&quot;font-family: Raleway, sans-serif; font-size: 18px; font-style: normal; font-variant-ligatures: normal; font-variant-caps: normal; font-weight: 400; letter-spacing: normal; orphans: 2; text-align: start; text-indent: 0px; text-transform: none; widows: 2; word-spacing: 0px; -webkit-text-stroke-width: 0px; text-decoration-thickness: initial; text-decoration-style: initial; text-decoration-color: initial; float: none; display: inline !important;&quot;&gt;.&lt;/span&gt;&lt;br style=&quot;box-sizing: border-box; font-family: Raleway, sans-serif; font-size: 18px; font-style: normal; font-variant-ligatures: normal; font-variant-caps: normal; font-weight: 400; letter-spacing: normal; orphans: 2; text-align: start; text-indent: 0px; text-transform: none; widows: 2; word-spacing: 0px; -webkit-text-stroke-width: 0px; text-decoration-thickness: initial; text-decoration-style: initial; text-decoration-color: initial;&quot;&gt;&lt;br style=&quot;box-sizing: border-box; font-family: Raleway, sans-serif; font-size: 18px; font-style: normal; font-variant-ligatures: normal; font-variant-caps: normal; font-weight: 400; letter-spacing: normal; orphans: 2; text-align: start; text-indent: 0px; text-transform: none; widows: 2; word-spacing: 0px; -webkit-text-stroke-width: 0px; text-decoration-thickness: initial; text-decoration-style: initial; text-decoration-color: initial;&quot;&gt;&lt;span style=&quot;font-family: Raleway, sans-serif; font-size: 18px; font-style: normal; font-variant-ligatures: normal; font-variant-caps: normal; font-weight: 400; letter-spacing: normal; orphans: 2; text-align: start; text-indent: 0px; text-transform: none; widows: 2; word-spacing: 0px; -webkit-text-stroke-width: 0px; text-decoration-thickness: initial; text-decoration-style: initial; text-decoration-color: initial; float: none; display: inline !important;&quot;&gt;To mitigate this risk,&lt;span&gt;&amp;nbsp;&lt;/span&gt;&lt;/span&gt;&lt;strong style=&quot;box-sizing: border-box; font-weight: 700; font-family: Raleway, sans-serif; font-size: 18px; font-style: normal; font-variant-ligatures: normal; font-variant-caps: normal; letter-spacing: normal; orphans: 2; text-align: start; text-indent: 0px; text-transform: none; widows: 2; word-spacing: 0px; -webkit-text-stroke-width: 0px; text-decoration-thickness: initial; text-decoration-style: initial; text-decoration-color: initial;&quot;&gt;it’s&lt;/strong&gt;&lt;span style=&quot;font-family: Raleway, sans-serif; font-size: 18px; font-style: normal; font-variant-ligatures: normal; font-variant-caps: normal; font-weight: 400; letter-spacing: normal; orphans: 2; text-align: start; text-indent: 0px; text-transform: none; widows: 2; word-spacing: 0px; -webkit-text-stroke-width: 0px; text-decoration-thickness: initial; text-decoration-style: initial; text-decoration-color: initial; float: none; display: inline !important;&quot;&gt;&lt;span&gt;&amp;nbsp;&lt;/span&gt;&lt;/span&gt;&lt;strong style=&quot;box-sizing: border-box; font-weight: 700; font-family: Raleway, sans-serif; font-size: 18px; font-style: normal; font-variant-ligatures: normal; font-variant-caps: normal; letter-spacing: normal; orphans: 2; text-align: start; text-indent: 0px; text-transform: none; widows: 2; word-spacing: 0px; -webkit-text-stroke-width: 0px; text-decoration-thickness: initial; text-decoration-style: initial; text-decoration-color: initial;&quot;&gt;best practice to use a well-vetted library for serialization and deserialization and only to deserialize data from trusted sources&lt;/strong&gt;&lt;span style=&quot;font-family: Raleway, sans-serif; font-size: 18px; font-style: normal; font-variant-ligatures: normal; font-variant-caps: normal; font-weight: 400; letter-spacing: normal; orphans: 2; text-align: start; text-indent: 0px; text-transform: none; widows: 2; word-spacing: 0px; -webkit-text-stroke-width: 0px; text-decoration-thickness: initial; text-decoration-style: initial; text-decoration-color: initial; float: none; display: inline !important;&quot;&gt;.&lt;/span&gt;" style="text;whiteSpace=wrap;html=1;fontColor=#FFFFFF;labelBackgroundColor=none;" vertex="1" parent="1">
                    <mxGeometry x="130" y="3720" width="560" height="170" as="geometry"/>
                </mxCell>
            </root>
        </mxGraphModel>
    </diagram>
</mxfile>